<?xml version="1.0" standalone="no"?>
<!DOCTYPE svg PUBLIC "-//W3C//DTD SVG 20010904//EN"
 "http://www.w3.org/TR/2001/REC-SVG-20010904/DTD/svg10.dtd">
<svg version="1.0" xmlns="http://www.w3.org/2000/svg"
 width="512.000000pt" height="512.000000pt" viewBox="0 0 512.000000 512.000000"
 preserveAspectRatio="xMidYMid meet">

<g transform="translate(0.000000,512.000000) scale(0.100000,-0.100000)"
fill="#000000" stroke="none">
<path d="M510 4780 l0 -340 85 0 85 0 2 -342 3 -343 428 -3 427 -2 0 -317 0
-317 -169 -171 c-158 -159 -170 -173 -176 -215 -3 -25 -5 -290 -3 -590 l3
-545 213 -589 212 -590 0 -179 0 -179 29 -29 29 -29 541 0 540 0 28 24 28 24
3 662 3 662 -106 247 c-58 135 -105 250 -105 254 0 4 207 7 460 7 l461 0 24
25 25 24 0 910 0 911 428 2 427 3 3 343 2 342 85 0 85 0 0 340 0 340 -2050 0
-2050 0 0 -340z m3930 0 l0 -170 -1880 0 -1880 0 0 170 0 170 1880 0 1880 0 0
-170z m-172 -597 l2 -253 -345 0 -346 0 3 83 3 82 83 3 82 3 0 84 0 85 -1190
0 -1190 0 0 -85 0 -84 83 -3 82 -3 3 -82 3 -83 -346 0 -345 0 0 248 c0 137 3
252 7 255 3 4 772 6 1707 5 l1701 -3 3 -252z m-2390 -685 l2 -598 85 0 85 0 0
411 0 411 38 -34 c280 -253 674 -250 950 6 l32 30 0 -412 0 -412 85 0 85 0 2
598 3 597 83 3 82 3 0 -1026 0 -1025 -425 0 -425 0 0 188 c0 209 -8 251 -61
315 -51 61 -118 89 -219 91 -104 1 -147 -7 -194 -39 l-36 -24 0 74 0 75 -85 0
-85 0 0 -255 0 -255 40 0 40 0 0 -85 0 -85 -125 0 -125 0 0 1025 0 1026 83 -3
82 -3 3 -597z m1179 565 c-11 -67 -75 -181 -136 -242 -247 -246 -662 -180
-815 130 -20 41 -39 91 -43 112 l-6 37 503 0 503 0 -6 -37z m-1517 -1668 l0
-466 25 -24 c24 -25 26 -25 210 -25 l185 0 0 -170 0 -170 85 0 85 0 0 424 c0
270 4 435 10 452 17 44 38 53 121 54 61 0 82 -4 100 -19 24 -19 24 -21 29
-273 l5 -253 128 -294 127 -293 -2 -412 -3 -411 -440 0 -440 0 -197 550 -197
550 0 542 -1 543 78 80 c42 44 80 80 85 80 4 0 7 -209 7 -465z m1108 -2137
l-3 -83 -427 -3 -428 -2 0 85 0 85 430 0 431 0 -3 -82z"/>
<path d="M1027 4263 c-4 -3 -7 -42 -7 -85 l0 -78 85 0 85 0 0 85 0 85 -78 0
c-43 0 -82 -3 -85 -7z"/>
<path d="M3930 4185 l0 -85 85 0 86 0 -3 83 -3 82 -82 3 -83 3 0 -86z"/>
<path d="M2480 3315 c-101 -32 -172 -130 -173 -240 0 -73 21 -127 71 -179 52
-54 104 -76 182 -76 78 0 130 22 182 76 50 53 71 106 71 180 -1 110 -74 208
-177 239 -60 18 -97 18 -156 0z m119 -170 c32 -16 41 -33 41 -78 0 -69 -91
-105 -137 -54 -38 41 -31 107 15 131 34 19 46 19 81 1z"/>
<path d="M3070 2560 l0 -170 -170 0 -170 0 0 -85 0 -85 255 0 255 0 0 255 0
255 -85 0 -85 0 0 -170z"/>
</g>
</svg>
